<svg width="67" height="19" viewBox="0 0 67 19" fill="none" xmlns="http://www.w3.org/2000/svg">
<path d="M0.962987 18.0999V0.771916H11.3959V3.67195H3.86302V7.99192H9.95189V10.8799H3.86302V18.0999H0.962987ZM13.801 3.13045V0.471083H16.7011V3.13045H13.801ZM13.801 18.0999V5.10392H16.7011V18.0999H13.801ZM27.9227 18.0999C27.0643 18.2604 26.222 18.3285 25.3957 18.3045C24.5775 18.2884 23.8434 18.14 23.1936 17.8592C22.5438 17.5704 22.0505 17.1172 21.7135 16.4995C21.4167 15.9379 21.2603 15.3643 21.2442 14.7787C21.2282 14.1931 21.2202 13.5313 21.2202 12.7932V1.49392H24.1082V12.6247C24.1082 13.1462 24.1122 13.6035 24.1202 13.9965C24.1362 14.3896 24.2205 14.7105 24.3729 14.9592C24.6617 15.4405 25.123 15.7093 25.7567 15.7654C26.3905 15.8216 27.1125 15.7895 27.9227 15.6692V18.0999ZM18.8616 7.37822V5.10392H27.9227V7.37822H18.8616ZM36.9626 18.4609C35.6951 18.4609 34.6321 18.1601 33.7737 17.5584C32.9154 16.9567 32.2696 16.1385 31.8364 15.1036C31.4032 14.0607 31.1866 12.8935 31.1866 11.6019C31.1866 10.2943 31.4032 9.12305 31.8364 8.08818C32.2696 7.05332 32.9033 6.23906 33.7376 5.64542C34.58 5.04375 35.6189 4.74292 36.8543 4.74292C38.0817 4.74292 39.1446 5.04375 40.0431 5.64542C40.9496 6.23906 41.6516 7.05332 42.1489 8.08818C42.6463 9.11503 42.895 10.2863 42.895 11.6019C42.895 12.9015 42.6503 14.0687 42.161 15.1036C41.6716 16.1385 40.9817 16.9567 40.0912 17.5584C39.2008 18.1601 38.1579 18.4609 36.9626 18.4609ZM30.6932 18.0999V0.771916H33.6173V8.97865H33.2563V18.0999H30.6932ZM36.5173 15.8617C37.2714 15.8617 37.8932 15.6732 38.3825 15.2961C38.8719 14.9191 39.2329 14.4097 39.4655 13.7679C39.7062 13.1181 39.8265 12.3961 39.8265 11.6019C39.8265 10.8157 39.7062 10.1018 39.4655 9.45998C39.2248 8.81018 38.8518 8.29676 38.3464 7.91972C37.841 7.53465 37.1992 7.34212 36.4211 7.34212C35.683 7.34212 35.0814 7.52262 34.6161 7.88362C34.1508 8.23659 33.8058 8.73397 33.5812 9.37575C33.3646 10.0095 33.2563 10.7516 33.2563 11.6019C33.2563 12.4442 33.3646 13.1863 33.5812 13.8281C33.8058 14.4699 34.1548 14.9712 34.6281 15.3322C35.1094 15.6852 35.7392 15.8617 36.5173 15.8617ZM45.7881 3.13045V0.471083H48.6881V3.13045H45.7881ZM45.7881 18.0999V5.10392H48.6881V18.0999H45.7881ZM59.9098 18.0999C59.0514 18.2604 58.2091 18.3285 57.3828 18.3045C56.5645 18.2884 55.8305 18.14 55.1807 17.8592C54.5309 17.5704 54.0375 17.1172 53.7006 16.4995C53.4037 15.9379 53.2473 15.3643 53.2313 14.7787C53.2152 14.1931 53.2072 13.5313 53.2072 12.7932V1.49392H56.0952V12.6247C56.0952 13.1462 56.0992 13.6035 56.1072 13.9965C56.1233 14.3896 56.2075 14.7105 56.3599 14.9592C56.6487 15.4405 57.11 15.7093 57.7438 15.7654C58.3775 15.8216 59.0995 15.7895 59.9098 15.6692V18.0999ZM50.8487 7.37822V5.10392H59.9098V7.37822H50.8487Z" fill="black"/>
<path d="M63.1857 18.0999V15.1277H66.1579V18.0999H63.1857Z" fill="#2E90EA"/>
</svg>
