<svg width="70" height="40" viewBox="0 0 70 40" fill="none" xmlns="http://www.w3.org/2000/svg">
<path d="M44.9658 19.98C44.7267 20.1802 44.4077 20.3804 44.049 20.6206C41.7369 22.2623 38.3485 23.4234 33.9636 23.4234H33.6845C29.2995 23.4234 25.9112 22.3023 23.5991 20.6206C23.2403 20.3804 22.9214 20.1401 22.6822 19.98C22.9214 19.7798 23.2403 19.5796 23.5991 19.2993C25.9112 17.6577 29.2995 16.4965 33.6845 16.4965H33.9636C38.3485 16.4965 41.7369 17.6176 44.049 19.2993C44.4077 19.5796 44.6868 19.8198 44.9658 19.98ZM67.6082 6.36637C67.6082 6.36637 65.615 4.84484 59.3166 2.52252C53.7756 0.440441 49.59 0 49.59 0V12.012C49.59 13.6937 49.1515 15.2553 47.836 17.017C43.1321 15.2953 38.6674 14.2142 33.8041 14.2142C28.9408 14.2142 24.4761 15.2553 19.7722 17.017C18.4966 15.2553 18.0182 13.6937 18.0182 12.012V0C18.0182 0 13.7927 0.44044 8.25171 2.48248C1.99317 4.84484 0 6.36637 0 6.36637C0.279043 11.8118 5.02278 16.6567 12.4772 20.02C5.02278 23.3433 0.23918 28.1882 0 33.6336C0 33.6336 1.99317 35.1552 8.29157 37.4775C13.8326 39.5195 18.0182 39.96 18.0182 39.96L17.9784 27.9479C17.9784 26.2663 18.4567 24.7047 19.7323 22.9429C24.4362 24.6647 28.9009 25.7057 33.7642 25.7057C38.6276 25.7057 43.0923 24.6647 47.7961 22.9429C49.0718 24.7047 49.5501 26.2262 49.5501 27.9479V39.96C49.5501 39.96 53.7358 39.5195 59.2768 37.4775C65.5752 35.1552 67.5683 33.6336 67.5683 33.6336C67.2893 28.1882 62.5456 23.3433 55.0911 19.98C62.5854 16.6567 67.3292 11.8118 67.6082 6.36637ZM69.8405 32.1922C69.8405 32.4725 69.6811 32.7528 69.402 32.8328C69.123 32.953 68.844 32.8729 68.6446 32.6727C68.4453 32.4725 68.3656 32.1521 68.4852 31.9119C68.6048 31.6316 68.844 31.4715 69.123 31.4715C69.3223 31.4715 69.4818 31.5515 69.6014 31.6717C69.7608 31.8318 69.8405 31.992 69.8405 32.1922ZM70 32.1922C70 31.8318 69.8007 31.5515 69.4818 31.3914C69.1629 31.2713 68.8041 31.3113 68.5649 31.5916C68.3257 31.8318 68.246 32.1922 68.3656 32.5125C68.4852 32.8328 68.8041 33.033 69.1629 33.033C69.6014 33.033 70 32.6727 70 32.1922Z" fill="black"/>
</svg>
