<svg width="50" height="40" viewBox="0 0 50 40" fill="none" xmlns="http://www.w3.org/2000/svg">
<path d="M4.71853 0.323195C4.40625 0.395073 4.09396 1.54512 3.4347 2.22796C2.98362 2.65922 2.42846 2.65922 2.11617 3.19831C1.97738 3.378 2.04678 3.77333 1.90798 4.09678C1.6651 4.81556 0.762945 4.88744 0.762945 5.60621C0.762945 6.39687 1.5263 6.57656 2.15087 7.18753C2.67134 7.65473 2.74074 7.97818 3.29591 8.15788C3.81638 8.33757 4.57974 7.76255 5.2737 7.97818C5.86357 8.15788 6.41874 8.30163 6.55753 8.87665C6.69632 9.45168 6.55753 10.3142 5.86357 10.1705C5.62068 10.1705 4.57974 9.77513 3.3653 9.91888C1.83859 10.0986 0.103681 10.5658 -0.000413201 12.3268C-0.0698094 13.2971 1.07523 14.4112 2.15087 14.2315C2.91423 14.0878 2.53255 13.1174 2.98363 12.6502C3.57349 12.0752 6.66163 14.6628 9.61097 14.6628C10.8254 14.6628 11.7622 14.3394 12.6644 13.369C12.7338 13.2971 12.8726 13.1174 12.9767 13.1174C13.1155 13.1174 13.289 13.2612 13.3584 13.2971C15.7178 15.2378 17.4874 19.1192 26.0926 19.1552C27.307 19.1552 28.6949 19.7302 29.84 20.7724C30.8462 21.7428 31.4361 23.2522 31.9913 24.7616C32.8934 27.0617 34.4201 29.254 36.7796 31.6619C36.9184 31.8057 38.8268 33.351 39.0003 33.4229C39.0003 33.4229 39.2085 33.8182 39.1391 33.9979C39.0697 35.5074 38.8962 39.7482 42.019 39.9279C42.7824 39.9997 42.6089 39.3888 42.6089 39.0294C42.6089 38.3106 42.4701 37.52 42.8518 36.8012C43.3722 35.759 41.7761 35.2917 41.7761 33.0276C41.8455 31.3385 40.4229 31.59 39.7289 30.3681C39.3473 29.6493 38.9656 29.1821 38.9656 28.2837C39.1044 23.1444 37.8899 19.7302 37.3001 18.9395C36.849 18.2926 36.3979 18.077 36.849 17.7536C39.4513 15.9926 40.0412 14.3753 40.0412 14.3753C41.4291 11.033 42.6436 7.97818 44.3785 6.68438C44.6908 6.43281 45.5929 5.71403 46.1481 5.46246C47.7442 4.6718 48.577 4.24054 49.028 3.77333C49.722 3.05455 50.3813 1.47324 49.6526 0.574768C48.7504 -0.611216 47.2931 0.323195 46.5992 0.754462C41.8108 3.70145 41.1169 8.76884 39.4513 11.7158C38.0981 14.0519 36.0162 15.8129 34.1078 15.9566C32.6505 16.1004 31.1238 15.7769 29.5971 15.0581C25.8497 13.369 23.8025 11.2127 23.282 10.8174C22.3105 10.0267 14.5381 2.15608 8.15364 1.79669C8.15364 1.79669 7.39029 0.17944 7.1821 0.17944C6.73102 0.107562 6.21055 1.14979 5.89827 1.29355C5.55129 1.47324 5.03081 0.251317 4.71853 0.323195Z" fill="black"/>
</svg>
